<svg width="128" height="128" viewBox="0 0 128 128" fill="none" xmlns="http://www.w3.org/2000/svg">
  <defs>
    <linearGradient id="bg" x1="18" y1="14" x2="110" y2="116" gradientUnits="userSpaceOnUse">
      <stop stop-color="#24324A"/>
      <stop offset="1" stop-color="#172033"/>
    </linearGradient>
  </defs>
  <rect x="8" y="8" width="112" height="112" rx="30" fill="url(#bg)"/>
  <circle cx="28" cy="30" r="18" fill="#1F57FF" opacity="0.08"/>
  <path d="M28 46C28 37.163 35.163 30 44 30H60C64.243 30 68.314 31.686 71.314 34.686L75.314 38.686C78.314 41.686 82.384 43.372 86.627 43.372H88C94.627 43.372 100 48.745 100 55.372V82C100 88.627 94.627 94 88 94H40C33.373 94 28 88.627 28 82V46Z" fill="#FFFFFF"/>
  <rect x="40" y="56" width="18" height="6" rx="3" fill="#DCE5FF"/>
  <rect x="40" y="68" width="24" height="6" rx="3" fill="#DCE5FF"/>
  <path d="M72 46H86C88.209 46 90 47.791 90 50V82L81 75.5L72 82V46Z" fill="#1F57FF"/>
</svg>
