<svg xmlns="http://www.w3.org/2000/svg" viewBox="0 0 128 128" width="128" height="128">
  <!-- 概念 6：标签分组管理 - 多彩色组 -->
  <defs>
    <linearGradient id="bg6" x1="0" y1="0" x2="128" y2="128">
      <stop offset="0%" stop-color="#1a1a2e"/>
      <stop offset="100%" stop-color="#16213e"/>
    </linearGradient>
  </defs>
  <rect x="0" y="0" width="128" height="128" rx="24" fill="url(#bg6)"/>
  <!-- 组 1：蓝色组 -->
  <rect x="16" y="16" width="96" height="28" rx="6" fill="#1f57ff" opacity="0.15"/>
  <rect x="16" y="16" width="96" height="8" rx="6" fill="#1f57ff" opacity="0.3"/>
  <rect x="18" y="17" width="60" height="6" rx="3" fill="#fff" opacity="0.13"/>
  <rect x="22" y="30" width="18" height="6" rx="3" fill="#fff" opacity="0.2"/>
  <rect x="44" y="30" width="55" height="6" rx="3" fill="#fff" opacity="0.12"/>
  <text x="72" y="21.5" font-family="Arial, sans-serif" font-size="6" font-weight="bold" fill="#fff" opacity="0.4" text-anchor="middle">Work</text>
  <!-- 组 2：红色组 -->
  <rect x="16" y="50" width="96" height="28" rx="6" fill="#D9304C" opacity="0.15"/>
  <rect x="16" y="50" width="96" height="8" rx="6" fill="#D9304C" opacity="0.3"/>
  <rect x="18" y="51" width="50" height="6" rx="3" fill="#fff" opacity="0.13"/>
  <rect x="22" y="64" width="60" height="6" rx="3" fill="#fff" opacity="0.2"/>
  <rect x="86" y="64" width="18" height="6" rx="3" fill="#fff" opacity="0.12"/>
  <text x="68" y="55.5" font-family="Arial, sans-serif" font-size="6" font-weight="bold" fill="#fff" opacity="0.4" text-anchor="middle">Social</text>
  <!-- 组 3：绿色组 -->
  <rect x="16" y="84" width="96" height="28" rx="6" fill="#0F9D58" opacity="0.15"/>
  <rect x="16" y="84" width="96" height="8" rx="6" fill="#0F9D58" opacity="0.3"/>
  <rect x="18" y="85" width="45" height="6" rx="3" fill="#fff" opacity="0.13"/>
  <rect x="22" y="98" width="45" height="6" rx="3" fill="#fff" opacity="0.2"/>
  <rect x="71" y="98" width="28" height="6" rx="3" fill="#fff" opacity="0.12"/>
  <text x="64" y="89.5" font-family="Arial, sans-serif" font-size="6" font-weight="bold" fill="#fff" opacity="0.4" text-anchor="middle">Research</text>
</svg>