<svg xmlns="http://www.w3.org/2000/svg" viewBox="0 0 128 128" width="128" height="128">
  <!-- 概念 4：多窗口管理 - 窗口叠层 -->
  <defs>
    <linearGradient id="bg4" x1="0" y1="0" x2="128" y2="128">
      <stop offset="0%" stop-color="#142850"/>
      <stop offset="100%" stop-color="#27496D"/>
    </linearGradient>
  </defs>
  <rect x="0" y="0" width="128" height="128" rx="24" fill="url(#bg4)"/>
  <!-- 后方窗口 -->
  <rect x="18" y="18" width="72" height="54" rx="5" fill="#fff" opacity="0.08"/>
  <rect x="18" y="18" width="72" height="12" rx="5" fill="#fff" opacity="0.06"/>
  <!-- 中间窗口 -->
  <rect x="30" y="28" width="72" height="54" rx="5" fill="#fff" opacity="0.15"/>
  <rect x="30" y="28" width="72" height="12" rx="5" fill="#fff" opacity="0.1"/>
  <circle cx="37" cy="34" r="2" fill="#fff" opacity="0.2"/>
  <rect x="46" y="32" width="30" height="4" rx="2" fill="#fff" opacity="0.12"/>
  <!-- 前方聚焦窗口 -->
  <rect x="22" y="42" width="84" height="62" rx="5" fill="#fff" opacity="0.95"/>
  <rect x="22" y="42" width="84" height="14" rx="5" fill="#F0F4FF"/>
  <rect x="22" y="50" width="84" height="6" fill="#F0F4FF"/>
  <circle cx="29" cy="49" r="2.5" fill="#FF5F57"/>
  <circle cx="36" cy="49" r="2.5" fill="#FEBC2E"/>
  <circle cx="43" cy="49" r="2.5" fill="#28C840"/>
  <rect x="54" y="47" width="35" height="4" rx="2" fill="#1f57ff" opacity="0.15"/>
  <!-- 窗口内容：标签行 -->
  <rect x="30" y="62" width="16" height="4" rx="2" fill="#1f57ff" opacity="0.1"/>
  <rect x="50" y="62" width="48" height="4" rx="2" fill="#1f57ff" opacity="0.08"/>
  <rect x="30" y="70" width="14" height="4" rx="2" fill="#1f57ff" opacity="0.08"/>
  <rect x="48" y="70" width="42" height="4" rx="2" fill="#1f57ff" opacity="0.06"/>
  <rect x="30" y="78" width="18" height="4" rx="2" fill="#1f57ff" opacity="0.06"/>
  <rect x="52" y="78" width="38" height="4" rx="2" fill="#1f57ff" opacity="0.05"/>
  <!-- 聚焦窗口底部标签 -->
  <rect x="30" y="90" width="68" height="8" rx="4" fill="#1f57ff" opacity="0.06"/>
  <text x="35" y="96" font-family="Arial, sans-serif" font-size="6" fill="#1f57ff" opacity="0.3">3 windows · 24 tabs</text>
</svg>