<svg xmlns="http://www.w3.org/2000/svg" viewBox="0 0 128 128" width="128" height="128">
  <!-- 概念 1：侧边栏标签管家 - 浏览器窗口 + 高亮侧边栏 -->
  <defs>
    <linearGradient id="bg1" x1="0" y1="0" x2="128" y2="128">
      <stop offset="0%" stop-color="#1a3a8a"/>
      <stop offset="100%" stop-color="#1f57ff"/>
    </linearGradient>
  </defs>
  <rect x="0" y="0" width="128" height="128" rx="24" fill="url(#bg1)"/>
  <!-- 浏览器窗口主体 -->
  <rect x="25" y="20" width="80" height="55" rx="4" fill="#fff" opacity="0.15"/>
  <rect x="25" y="20" width="80" height="12" rx="4" fill="#fff" opacity="0.1"/>
  <circle cx="32" cy="26" r="2" fill="#fff" opacity="0.3"/>
  <circle cx="38" cy="26" r="2" fill="#fff" opacity="0.3"/>
  <circle cx="44" cy="26" r="2" fill="#fff" opacity="0.3"/>
  <rect x="54" y="23.5" width="40" height="5" rx="2.5" fill="#fff" opacity="0.2"/>
  <!-- 窗口内容行 -->
  <rect x="30" y="37" width="40" height="3" rx="1.5" fill="#fff" opacity="0.15"/>
  <rect x="30" y="43" width="35" height="3" rx="1.5" fill="#fff" opacity="0.12"/>
  <rect x="30" y="49" width="38" height="3" rx="1.5" fill="#fff" opacity="0.1"/>
  <rect x="30" y="55" width="32" height="3" rx="1.5" fill="#fff" opacity="0.08"/>
  <!-- 右侧高亮侧边栏 -->
  <rect x="88" y="20" width="17" height="55" rx="2" fill="#fff" opacity="0.25"/>
  <rect x="91" y="24" width="11" height="3" rx="1.5" fill="#fff" opacity="0.4"/>
  <rect x="91" y="30" width="11" height="2" rx="1" fill="#fff" opacity="0.25"/>
  <rect x="91" y="34.5" width="11" height="2" rx="1" fill="#fff" opacity="0.25"/>
  <rect x="91" y="39" width="11" height="2" rx="1" fill="#fff" opacity="0.25"/>
  <!-- 下方标签页列表示意 -->
  <rect x="25" y="82" width="80" height="28" rx="4" fill="#fff" opacity="0.08"/>
  <rect x="30" y="87" width="12" height="3" rx="1.5" fill="#fff" opacity="0.2"/>
  <rect x="45" y="87" width="55" height="3" rx="1.5" fill="#fff" opacity="0.15"/>
  <rect x="30" y="93" width="12" height="3" rx="1.5" fill="#fff" opacity="0.15"/>
  <rect x="45" y="93" width="50" height="3" rx="1.5" fill="#fff" opacity="0.1"/>
  <rect x="30" y="99" width="12" height="3" rx="1.5" fill="#fff" opacity="0.1"/>
  <rect x="45" y="99" width="52" height="3" rx="1.5" fill="#fff" opacity="0.08"/>
</svg>