<svg xmlns="http://www.w3.org/2000/svg" viewBox="0 0 128 128" width="128" height="128">
  <defs>
    <linearGradient id="gg" x1="0" y1="0" x2="1" y2="1">
      <stop offset="0%" stop-color="#667eea"/>
      <stop offset="100%" stop-color="#764ba2"/>
    </linearGradient>
  </defs>
  <rect x="0" y="0" width="128" height="128" rx="24" fill="url(#gg)"/>
  <!-- 毛玻璃卡片 1 -->
  <rect x="22" y="30" width="84" height="68" rx="12" fill="#fff" opacity="0.12"/>
  <rect x="22" y="30" width="84" height="68" rx="12" fill="none" stroke="#fff" stroke-width="1" opacity="0.18"/>
  <!-- 毛玻璃卡片 2 -->
  <rect x="28" y="36" width="72" height="52" rx="10" fill="#fff" opacity="0.15"/>
  <rect x="28" y="36" width="72" height="52" rx="10" fill="none" stroke="#fff" stroke-width="1" opacity="0.2"/>
  <!-- 顶部高光条 -->
  <rect x="28" y="36" width="72" height="16" rx="10" fill="#fff" opacity="0.08"/>
  <rect x="28" y="44" width="72" height="8" fill="#fff" opacity="0.08"/>
  <!-- 虚拟内容行 -->
  <rect x="38" y="58" width="50" height="4" rx="2" fill="#fff" opacity="0.15"/>
  <rect x="38" y="66" width="42" height="4" rx="2" fill="#fff" opacity="0.1"/>
  <rect x="38" y="74" width="46" height="4" rx="2" fill="#fff" opacity="0.08"/>
  <!-- 控制点 -->
  <circle cx="38" cy="44" r="3" fill="#fff" opacity="0.25"/>
  <circle cx="48" cy="44" r="3" fill="#fff" opacity="0.2"/>
  <circle cx="60" cy="44" r="8" fill="none" stroke="#fff" stroke-width="1" opacity="0.15"/>
</svg>